<svg xmlns="http://www.w3.org/2000/svg" viewBox="0 0 800 360" width="800" height="360" font-family="system-ui,-apple-system,Segoe UI,Helvetica,Arial,sans-serif" role="img" aria-labelledby="t">
<title id="t">TVL over time: Aerodrome, Velodrome, Fraxtal</title>
<text x="0" y="18" font-size="15" font-weight="600" fill="#1f2328">TVL over time</text>
<line x1="0" y1="38" x2="16" y2="38" stroke="#2a78d6" stroke-width="2" stroke-linecap="round"/><text x="22" y="42" font-size="12" fill="#59636e">Aerodrome</text>
<line x1="105" y1="38" x2="121" y2="38" stroke="#eb6834" stroke-width="2" stroke-linecap="round"/><text x="127" y="42" font-size="12" fill="#59636e">Velodrome</text>
<line x1="210" y1="38" x2="226" y2="38" stroke="#1baf7a" stroke-width="2" stroke-linecap="round"/><text x="232" y="42" font-size="12" fill="#59636e">Fraxtal</text>
<line x1="56" y1="328.0" x2="650" y2="328.0" stroke="#afb8c1" stroke-width="1"/><text x="48" y="332.0" font-size="11" text-anchor="end" fill="#59636e">$0</text>
<line x1="56" y1="240.0" x2="650" y2="240.0" stroke="#d1d9e0" stroke-width="1"/><text x="48" y="244.0" font-size="11" text-anchor="end" fill="#59636e">$500M</text>
<line x1="56" y1="152.0" x2="650" y2="152.0" stroke="#d1d9e0" stroke-width="1"/><text x="48" y="156.0" font-size="11" text-anchor="end" fill="#59636e">$1B</text>
<line x1="56" y1="64.0" x2="650" y2="64.0" stroke="#d1d9e0" stroke-width="1"/><text x="48" y="68.0" font-size="11" text-anchor="end" fill="#59636e">$1.5B</text>
<text x="135.5" y="350" font-size="11" text-anchor="middle" fill="#59636e">2023</text>
<text x="271.8" y="350" font-size="11" text-anchor="middle" fill="#59636e">2024</text>
<text x="408.4" y="350" font-size="11" text-anchor="middle" fill="#59636e">2025</text>
<text x="544.7" y="350" font-size="11" text-anchor="middle" fill="#59636e">2026</text>
<path d="M225.9,323.8 L228.5,299.2 L231.1,304.6 L233.7,307.4 L236.3,310.6 L238.9,310.3 L241.6,316.4 L244.2,318.2 L246.8,317.8 L249.4,317.9 L252.0,318.6 L254.6,318.1 L257.2,317.0 L259.8,317.0 L262.5,315.3 L265.1,315.2 L267.7,307.7 L270.3,306.3 L272.9,307.8 L275.5,307.5 L278.1,307.2 L280.8,309.0 L283.4,308.0 L286.0,305.2 L288.6,304.6 L291.2,306.3 L293.8,301.5 L296.4,288.2 L299.1,278.1 L301.7,269.5 L304.3,236.6 L306.9,228.7 L309.5,208.3 L312.1,203.9 L314.7,194.1 L317.3,216.9 L320.0,207.1 L322.6,213.7 L325.2,205.9 L327.8,209.2 L330.4,210.0 L333.0,226.0 L335.6,227.7 L338.3,229.7 L340.9,240.6 L343.5,245.3 L346.1,227.0 L348.7,222.7 L351.3,221.4 L353.9,244.0 L356.5,237.5 L359.2,226.3 L361.8,227.7 L364.4,228.7 L367.0,226.3 L369.6,212.8 L372.2,196.3 L374.8,182.7 L377.5,167.4 L380.1,155.8 L382.7,165.9 L385.3,162.3 L387.9,158.6 L390.5,146.0 L393.1,142.5 L395.7,124.3 L398.4,129.9 L401.0,120.4 L402.8,108.0 L403.6,134.6 L406.2,134.0 L408.8,135.5 L411.4,148.2 L414.0,155.3 L416.7,175.0 L419.3,189.8 L421.9,211.1 L424.5,212.8 L427.1,211.3 L429.7,231.9 L432.3,235.1 L435.0,246.8 L437.6,237.8 L440.2,233.7 L442.8,244.1 L445.4,256.7 L448.0,256.5 L450.6,248.8 L453.2,243.5 L455.9,249.3 L458.5,232.0 L461.1,231.3 L463.7,235.4 L466.3,240.1 L468.9,240.0 L471.5,235.7 L474.2,241.8 L476.8,234.8 L479.4,228.8 L482.0,223.1 L484.6,228.1 L487.2,229.4 L489.8,232.0 L492.4,222.5 L495.1,222.0 L497.7,219.6 L500.3,221.5 L502.9,218.6 L505.5,211.7 L508.1,221.9 L510.7,225.6 L513.4,222.7 L516.0,238.4 L518.6,236.5 L521.2,233.9 L523.8,244.0 L526.4,244.3 L529.0,253.4 L531.6,252.1 L534.3,249.2 L536.9,246.1 L539.5,253.0 L542.1,252.1 L544.7,248.0 L547.3,241.0 L549.9,241.6 L552.6,245.8 L555.2,247.1 L557.8,265.6 L560.4,268.3 L563.0,268.7 L565.6,266.0 L568.2,264.1 L570.8,267.8 L573.5,264.6 L576.1,267.7 L578.7,267.8 L581.3,267.5 L583.9,262.5 L586.5,266.9 L589.1,262.6 L591.8,261.0 L594.4,260.2 L597.0,264.0 L599.6,265.4 L602.2,271.5 L604.8,277.6 L607.4,273.5 L610.1,274.7 L612.7,273.1 L615.3,270.8 L617.9,269.8 L620.5,270.9 L623.1,275.0 L625.7,281.6 L628.3,283.4 L631.0,282.7 L633.6,281.1 L636.2,274.0 L638.8,269.3 L641.4,269.3 L644.0,261.1 L646.6,258.1 L649.3,259.3 L650.0,258.7" fill="none" stroke="#2a78d6" stroke-width="2" stroke-linejoin="round" stroke-linecap="round"/>
<path d="M56.0,323.0 L58.6,321.6 L61.2,325.8 L63.8,325.8 L66.5,325.4 L69.1,325.5 L71.7,323.4 L74.3,315.4 L76.9,309.8 L79.5,304.1 L82.1,306.6 L84.7,314.2 L87.4,314.5 L90.0,315.8 L92.6,316.4 L95.2,318.1 L97.8,318.3 L100.4,318.1 L103.0,317.7 L105.7,316.3 L108.3,313.3 L110.9,313.5 L113.5,312.8 L116.1,316.2 L118.7,316.7 L121.3,316.2 L123.9,315.6 L126.6,314.7 L129.2,314.3 L131.8,314.8 L134.4,314.8 L137.0,314.6 L139.6,312.5 L142.2,310.8 L144.9,306.5 L147.5,302.7 L150.1,295.7 L152.7,291.8 L155.3,280.2 L157.9,271.0 L160.5,273.5 L163.2,283.0 L165.8,275.6 L168.4,278.4 L171.0,278.9 L173.6,282.2 L176.2,278.3 L178.8,276.3 L181.4,277.2 L184.1,282.2 L186.7,284.9 L189.3,286.3 L191.9,287.7 L194.5,287.0 L197.1,290.7 L199.7,291.2 L202.4,297.9 L205.0,287.2 L207.6,289.5 L210.2,285.6 L212.8,282.8 L215.4,284.0 L218.0,285.4 L220.6,290.5 L223.3,292.6 L225.9,295.0 L228.5,301.6 L231.1,302.7 L233.7,301.7 L236.3,302.1 L238.9,303.1 L241.6,306.7 L244.2,306.8 L246.8,306.3 L249.4,306.1 L252.0,306.2 L254.6,302.4 L257.2,303.7 L259.8,304.0 L262.5,305.0 L265.1,305.8 L267.7,303.6 L270.3,301.0 L272.9,301.9 L275.5,300.7 L278.1,301.5 L280.8,304.6 L283.4,306.9 L286.0,306.3 L288.6,305.6 L291.2,305.9 L293.8,305.5 L296.4,302.6 L299.1,301.3 L301.7,305.0 L304.3,303.1 L306.9,298.0 L309.5,296.8 L312.1,301.9 L314.7,299.6 L317.3,300.5 L320.0,300.0 L322.6,301.7 L325.2,300.2 L327.8,300.8 L330.4,300.5 L333.0,303.9 L335.6,306.4 L338.3,308.2 L340.9,309.7 L343.5,310.9 L346.1,309.3 L348.7,309.8 L351.3,310.4 L353.9,314.1 L356.5,313.1 L359.2,312.5 L361.8,312.4 L364.4,312.6 L367.0,312.0 L369.6,311.8 L372.2,311.5 L374.8,311.9 L377.5,311.6 L380.1,310.9 L382.7,312.3 L385.3,313.5 L387.9,313.6 L390.5,313.1 L393.1,314.0 L395.7,312.9 L398.4,312.6 L401.0,312.0 L403.6,310.7 L406.2,310.7 L408.8,309.5 L411.4,311.6 L414.0,311.3 L416.7,312.1 L419.3,313.1 L421.9,316.8 L424.5,316.8 L427.1,317.5 L429.7,318.1 L432.3,315.6 L435.0,317.4 L437.6,317.6 L440.2,316.1 L442.8,317.6 L445.4,317.9 L448.0,318.0 L450.6,316.9 L453.2,314.3 L455.9,313.9 L458.5,310.0 L461.1,310.3 L463.7,311.0 L466.3,311.7 L468.9,311.2 L471.5,310.4 L474.2,310.6 L476.8,311.5 L479.4,312.3 L482.0,311.0 L484.6,312.0 L487.2,314.0 L489.8,314.3 L492.4,313.0 L495.1,315.0 L497.7,315.1 L500.3,315.0 L502.9,314.9 L505.5,314.7 L508.1,315.6 L510.7,315.6 L513.4,315.2 L516.0,317.2 L518.6,317.8 L521.2,317.8 L523.8,318.9 L526.4,318.2 L529.0,318.8 L531.6,318.9 L534.3,318.7 L536.9,317.9 L539.5,318.7 L542.1,318.8 L544.7,318.8 L547.3,319.1 L549.9,318.7 L552.6,319.2 L555.2,319.6 L557.8,321.7 L560.4,321.7 L563.0,321.4 L565.6,321.5 L568.2,320.3 L570.8,320.2 L573.5,319.7 L576.1,320.1 L578.7,320.8 L581.3,320.9 L583.9,319.9 L586.5,319.9 L589.1,320.0 L591.8,319.6 L594.4,320.1 L597.0,320.5 L599.6,320.8 L602.2,322.1 L604.8,321.9 L607.4,321.9 L610.1,322.1 L612.7,322.0 L615.3,321.6 L617.9,320.9 L620.5,321.4 L623.1,321.6 L625.7,321.9 L628.3,322.0 L631.0,321.0 L633.6,320.6 L636.2,320.8 L638.8,320.7 L641.4,321.6 L644.0,321.3 L646.6,320.8 L649.3,320.7 L650.0,321.4" fill="none" stroke="#eb6834" stroke-width="2" stroke-linejoin="round" stroke-linecap="round"/>
<path d="M418.9,324.8 L421.5,289.6 L424.1,290.0 L426.7,289.6 L429.4,290.1 L432.0,290.8 L434.6,291.8 L437.2,288.9 L439.8,287.2 L442.4,288.2 L445.0,290.6 L447.6,290.4 L450.3,288.2 L452.9,296.1 L455.5,290.0 L458.1,285.5 L460.7,280.8 L463.3,283.6 L465.9,286.5 L468.6,285.2 L471.2,288.6 L473.8,289.4 L476.4,291.0 L479.0,290.4 L481.6,287.7 L483.1,278.5 L484.2,279.4 L486.8,282.8 L489.5,284.7 L492.1,280.7 L494.7,283.3 L497.3,283.3 L499.9,284.2 L502.5,282.4 L505.1,283.5 L507.8,289.6 L510.4,286.5 L513.0,290.9 L515.6,294.2 L518.2,294.4 L520.8,294.4 L523.4,296.4 L526.0,297.0 L528.7,298.6 L531.3,299.2 L533.9,299.4 L536.5,299.6 L539.1,300.6 L541.7,300.3 L544.3,300.6 L547.0,300.4 L549.6,299.2 L552.2,295.2 L554.8,296.2 L557.4,297.5 L560.0,298.3 L562.6,298.7 L565.2,299.4 L567.9,299.7 L570.5,299.6 L573.1,299.1 L575.7,300.8 L578.3,301.2 L580.9,301.3 L583.5,300.9 L586.2,296.3 L588.8,296.5 L591.4,296.3 L594.0,296.1 L596.6,297.0 L599.2,297.3 L601.8,297.7 L604.5,298.5 L607.1,298.5 L609.7,299.2 L612.3,299.5 L614.9,299.5 L617.5,299.0 L620.1,298.7 L622.7,299.0 L625.4,298.9 L628.0,298.5 L630.6,298.8 L633.2,298.3 L635.8,298.4 L638.4,298.9 L641.0,298.6 L643.7,298.0 L646.3,298.6 L648.9,297.9 L650.0,298.0" fill="none" stroke="#1baf7a" stroke-width="2" stroke-linejoin="round" stroke-linecap="round"/>
<line x1="656.0" y1="258.7" x2="660" y2="258.7" stroke="#afb8c1" stroke-width="1"/><circle cx="650.0" cy="258.7" r="4" fill="#2a78d6" stroke="#ffffff" stroke-width="2"/><text x="664" y="262.7" font-size="12"><tspan font-weight="600" fill="#1f2328">Aerodrome</tspan><tspan fill="#59636e"> $393.5M</tspan></text>
<line x1="656.0" y1="298.0" x2="660" y2="298.0" stroke="#afb8c1" stroke-width="1"/><circle cx="650.0" cy="298.0" r="4" fill="#1baf7a" stroke="#ffffff" stroke-width="2"/><text x="664" y="302.0" font-size="12"><tspan font-weight="600" fill="#1f2328">Fraxtal</tspan><tspan fill="#59636e"> $170.7M</tspan></text>
<line x1="656.0" y1="321.4" x2="660" y2="321.4" stroke="#afb8c1" stroke-width="1"/><circle cx="650.0" cy="321.4" r="4" fill="#eb6834" stroke="#ffffff" stroke-width="2"/><text x="664" y="325.4" font-size="12"><tspan font-weight="600" fill="#1f2328">Velodrome</tspan><tspan fill="#59636e"> $37.3M</tspan></text>
<circle cx="402.8" cy="108.0" r="4" fill="#2a78d6" stroke="#ffffff" stroke-width="2"/><text x="402.8" y="98.0" font-size="12" text-anchor="middle"><tspan font-weight="600" fill="#1f2328">$1.25B</tspan><tspan fill="#59636e"> peak</tspan></text>
</svg>
